<?xml version="1.0" encoding="UTF-8"?>
<!DOCTYPE svg PUBLIC "-//W3C//DTD SVG 1.1//EN" "http://www.w3.org/Graphics/SVG/1.1/DTD/svg11.dtd">
<!-- Creator: CorelDRAW -->
<svg xmlns="http://www.w3.org/2000/svg" xml:space="preserve" width="168px" height="56px" version="1.1" style="shape-rendering:geometricPrecision; text-rendering:geometricPrecision; image-rendering:optimizeQuality; fill-rule:evenodd; clip-rule:evenodd"
viewBox="0 0 9.06 3.04"
 xmlns:xlink="http://www.w3.org/1999/xlink"
 xmlns:xodm="http://www.corel.com/coreldraw/odm/2003">
 <defs>
  <style type="text/css">
   <![CDATA[
    .fil4 {fill:#FEFEFE}
    .fil3 {fill:#F26B35}
    .fil5 {fill:#FEFEFE;fill-rule:nonzero}
    .fil0 {fill:#FEFEFE;fill-rule:nonzero}
    .fil2 {fill:#F26B35;fill-rule:nonzero}
    .fil1 {fill:#FEFEFE;fill-rule:nonzero;fill-opacity:0.501961}
   ]]>
  </style>
 </defs>
 <g id="Layer_x0020_1">
  <metadata id="CorelCorpID_0Corel-Layer"/>
  <g id="_2318408786368">
   <path class="fil0" d="M0.15 0.14l0.02 0.06 0.03 0 -0.07 -0.2 -0.04 0 -0.07 0.2 0.03 0 0.02 -0.06 0.08 0zm-0.01 -0.02l-0.06 0 0.03 -0.09 0.03 0.09zm0.2 -0.12l0 0.14c0,0.03 -0.02,0.04 -0.05,0.04 -0.02,0 -0.03,0 -0.04,-0.01 -0.01,-0.01 -0.01,-0.02 -0.01,-0.03l0 -0.14 -0.03 0 0 0.14c0,0.04 0.03,0.06 0.08,0.06 0.04,0 0.07,-0.02 0.07,-0.06l0 -0.14 -0.02 0zm0.14 0.02l0.06 0 0 -0.02 -0.15 0 0 0.02 0.06 0 0 0.18 0.03 0 0 -0.18zm0.16 -0.02c-0.05,0 -0.09,0.04 -0.09,0.1 0,0.06 0.04,0.1 0.09,0.1 0.03,0 0.05,0 0.06,-0.02 0.02,-0.02 0.04,-0.05 0.04,-0.08 0,-0.06 -0.04,-0.1 -0.1,-0.1zm0 0.02c0.04,0 0.07,0.03 0.07,0.08 0,0.05 -0.03,0.08 -0.07,0.08 -0.04,0 -0.07,-0.03 -0.07,-0.08 0,-0.05 0.03,-0.08 0.07,-0.08zm0.16 0.09l0.1 0 0 -0.02 -0.1 0 0 -0.07 0.11 0 0 -0.02 -0.14 0 0 0.2 0.14 0 0 -0.03 -0.11 0 0 -0.06zm0.29 -0.05c0,-0.04 -0.03,-0.06 -0.08,-0.06 -0.04,0 -0.07,0.02 -0.07,0.06 0,0.02 0.02,0.04 0.04,0.04l0.05 0.01c0.03,0.01 0.04,0.02 0.04,0.04 0,0.01 -0.01,0.02 -0.02,0.02 0,0.01 -0.02,0.01 -0.03,0.01 -0.02,0 -0.04,0 -0.05,-0.02 0,0 -0.01,-0.01 -0.01,-0.02l-0.02 0c0,0.01 0,0.02 0.01,0.04 0.01,0.01 0.04,0.02 0.07,0.02 0.02,0 0.04,0 0.05,-0.01 0.02,-0.01 0.02,-0.03 0.02,-0.05 0,-0.02 -0.01,-0.04 -0.04,-0.04l-0.05 -0.02c-0.02,0 -0.03,-0.01 -0.03,-0.03 0,-0.02 0.02,-0.03 0.04,-0.03 0.04,0 0.05,0.01 0.05,0.04l0.03 0zm0.19 0c0,-0.04 -0.03,-0.06 -0.07,-0.06 -0.03,0 -0.05,0.01 -0.06,0.02 -0.02,0.02 -0.03,0.05 -0.03,0.08 0,0.03 0.01,0.06 0.03,0.08 0.01,0.02 0.03,0.02 0.06,0.02 0.05,0 0.07,-0.02 0.08,-0.07l-0.03 0c0,0.01 0,0.02 -0.01,0.03 0,0.01 -0.02,0.02 -0.04,0.02 -0.04,0 -0.07,-0.03 -0.07,-0.08 0,-0.05 0.03,-0.08 0.07,-0.08 0.01,0 0.03,0.01 0.03,0.01 0.01,0.01 0.02,0.02 0.02,0.03l0.02 0zm0.12 -0.06c-0.05,0 -0.09,0.04 -0.09,0.1 0,0.06 0.04,0.1 0.09,0.1 0.03,0 0.05,0 0.06,-0.02 0.03,-0.02 0.04,-0.05 0.04,-0.08 0,-0.06 -0.04,-0.1 -0.1,-0.1zm0 0.02c0.05,0 0.07,0.03 0.07,0.08 0,0.05 -0.03,0.08 -0.07,0.08 -0.04,0 -0.07,-0.03 -0.07,-0.08 0,-0.05 0.03,-0.08 0.07,-0.08zm0.15 -0.02l-0.02 0 0 0.2 0.12 0 0 -0.03 -0.1 0 0 -0.17zm0.24 0.14l0.02 0.06 0.03 0 -0.07 -0.2 -0.03 0 -0.07 0.2 0.02 0 0.02 -0.06 0.08 0zm-0.01 -0.02l-0.06 0 0.03 -0.09 0.03 0.09z"/>
   <path class="fil1" d="M2.91 0.12c-0.01,0 -0.01,0 -0.01,0.01 0,0 -0.01,0 -0.01,0.01 0,0 0,0 0,0.01 0,0 -0.01,0 -0.01,0.01 0,0 0.01,0.01 0.01,0.01 0,0.01 0,0.01 0.01,0.02 0,0 0.01,0 0.01,0 0.01,0.01 0.01,0.01 0.02,0.01 0,0 0.01,0 0.02,-0.01 0,0 0.01,0 0.01,-0.01l-0.05 -0.06zm0.01 -0.08c0,0 0,0 -0.01,0 0,0 0,0.01 0,0.01 0,0 -0.01,0 -0.01,0 0,0.01 0,0.01 0,0.01 0,0.01 0,0.02 0.01,0.02 0,0.01 0.01,0.01 0.01,0.02 0.01,0 0.02,-0.01 0.02,-0.01 0.01,-0.01 0.01,-0.02 0.01,-0.02 0,-0.01 -0.01,-0.02 -0.01,-0.02 0,-0.01 -0.01,-0.01 -0.02,-0.01zm0.01 -0.01c0,0 0.01,0 0.01,0 0.01,0 0.01,0.01 0.02,0.01 0,0 0,0.01 0,0.01 0.01,0 0.01,0.01 0.01,0.01 0,0.01 0,0.01 0,0.02 -0.01,0 -0.01,0 -0.01,0.01 0,0 -0.01,0 -0.01,0.01 -0.01,0 -0.01,0.01 -0.02,0.01l0.05 0.05c0,0 0,-0.01 0,-0.01 0.01,-0.01 0.01,-0.01 0.01,-0.02 0,0 0,0 0,-0.01 0.01,0 0.01,-0.01 0.01,-0.01 0,0 0,0 -0.01,0l-0.02 0c0,0 0,0 0,0l0 -0.01c0,0 0,0 0,0l0.06 0c0,0 0,0 0,0l0 0.01c0,0 0,0 0,0l-0.02 0c0,0 0,0 0,0 0,0 0,0 0,0 0,0 0,0.01 0,0.01 -0.01,0.01 -0.01,0.01 -0.01,0.02 0,0 0,0.01 -0.01,0.01 0,0.01 0,0.01 0,0.02l0.03 0.03c0,0 0,0 0,0l0.02 0c0,0 0,0 0,0l0 0.01c0,0 0,0 0,0l-0.04 0c0,0 0,0 0,0l-0.03 -0.02c0,0 0,0 -0.01,0.01 0,0 -0.01,0 -0.01,0.01 0,0 -0.01,0 -0.02,0 0,0 -0.01,0.01 -0.02,0.01 0,0 -0.01,-0.01 -0.02,-0.01 0,0 -0.01,0 -0.01,-0.01 -0.01,0 -0.01,-0.01 -0.02,-0.01 0,-0.01 0,-0.02 0,-0.02 0,-0.01 0,-0.02 0.01,-0.03 0.01,-0.01 0.02,-0.02 0.03,-0.03 0,0 -0.01,-0.01 -0.01,-0.01 0,0 0,-0.01 0,-0.01 -0.01,0 -0.01,-0.01 -0.01,-0.01 0,0 0,-0.01 0,-0.01 0,-0.01 0,-0.01 0,-0.02 0.01,0 0.01,0 0.01,-0.01 0.01,0 0.01,-0.01 0.02,-0.01 0,0 0.01,0 0.02,0z"/>
   <path class="fil2" d="M2.09 0.2l-0.03 -0.04 -0.08 0 0.01 -0.03 0.06 0 -0.04 -0.06 -0.08 0.13 -0.04 0 0.11 -0.16c0,-0.01 0,-0.01 0,-0.01 0,0 0.01,0 0.01,0 0,0 0.01,0 0.01,0 0,0 0,0 0.01,0.01l0.1 0.16 -0.04 0zm-0.01 -0.17l0.04 0 0.08 0.13 0.08 -0.13 0.03 0 -0.1 0.16c0,0.01 0,0.01 -0.01,0.01 0,0 0,0 -0.01,0 0,0 0,0 0,0 -0.01,0 -0.01,0 -0.01,-0.01l-0.1 -0.16zm0.38 0.17l-0.03 -0.04 -0.08 0 0.01 -0.03 0.06 0 -0.04 -0.06 -0.08 0.13 -0.04 0 0.1 -0.16c0.01,-0.01 0.01,-0.01 0.01,-0.01 0,0 0.01,0 0.01,0 0,0 0.01,0 0.01,0 0,0 0,0 0,0.01l0.11 0.16 -0.04 0zm0.08 -0.13l0 0.13 -0.03 0 0 -0.16c0,0 0.01,-0.01 0.01,-0.01 0,0 0.01,0 0.01,0 0,0 0,0 0.01,0 0,0 0,0 0,0l0.13 0.12 0 -0.12 0.03 0 0 0.16c0,0 0,0.01 -0.01,0.01 0,0 0,0 -0.01,0 0,0 -0.01,0 -0.01,0l-0.13 -0.13zm0.24 0.13l0 -0.14 -0.06 0 0 -0.03 0.16 0 0 0.03 -0.07 0 0 0.14 -0.03 0z"/>
   <path class="fil0" d="M0 1.61l0 -1.32 0.77 0c0.1,0 0.19,0.02 0.27,0.05 0.08,0.03 0.14,0.08 0.2,0.13 0.06,0.06 0.11,0.13 0.14,0.21 0.03,0.08 0.05,0.16 0.05,0.26 0,0.09 -0.02,0.18 -0.05,0.26 -0.03,0.09 -0.08,0.16 -0.14,0.22 -0.06,0.06 -0.12,0.1 -0.2,0.14 -0.08,0.03 -0.17,0.05 -0.27,0.05l-0.77 0zm0.77 -0.23c0.06,0 0.12,-0.01 0.17,-0.03 0.05,-0.02 0.1,-0.05 0.13,-0.09 0.04,-0.04 0.07,-0.09 0.09,-0.14 0.02,-0.05 0.03,-0.11 0.03,-0.17 0,-0.06 -0.01,-0.12 -0.03,-0.17 -0.02,-0.06 -0.05,-0.1 -0.09,-0.14 -0.03,-0.04 -0.08,-0.06 -0.13,-0.09 -0.05,-0.02 -0.11,-0.03 -0.17,-0.03l-0.54 0 0 0.86 0.54 0zm2.04 -1.09l0.23 0 0 0.74c0,0.1 -0.01,0.19 -0.04,0.26 -0.03,0.08 -0.07,0.14 -0.13,0.19 -0.05,0.05 -0.13,0.09 -0.22,0.11 -0.09,0.03 -0.2,0.04 -0.33,0.04 -0.13,0 -0.24,-0.01 -0.33,-0.04 -0.09,-0.02 -0.17,-0.06 -0.23,-0.11 -0.05,-0.05 -0.1,-0.11 -0.12,-0.19 -0.03,-0.07 -0.04,-0.16 -0.04,-0.26l0 -0.74 0.24 0 0 0.74c0,0.07 0.01,0.12 0.02,0.17 0.02,0.05 0.05,0.08 0.08,0.12 0.04,0.03 0.09,0.05 0.15,0.06 0.07,0.02 0.14,0.02 0.24,0.02 0.09,0 0.17,0 0.23,-0.02 0.06,-0.01 0.11,-0.03 0.15,-0.06 0.04,-0.04 0.06,-0.07 0.08,-0.12 0.02,-0.05 0.02,-0.1 0.02,-0.17l0 -0.74zm3.31 1.32l-0.34 -0.37 -0.5 0 0 -0.2 0.56 0c0.08,0 0.15,-0.02 0.19,-0.07 0.04,-0.04 0.06,-0.11 0.06,-0.19 0,-0.09 -0.02,-0.15 -0.06,-0.19 -0.05,-0.05 -0.11,-0.07 -0.19,-0.07l-0.73 0 0 1.09 -0.23 0 0 -1.32 0.96 0c0.07,0 0.14,0.01 0.2,0.04 0.06,0.02 0.11,0.05 0.15,0.09 0.05,0.04 0.08,0.09 0.1,0.15 0.02,0.06 0.03,0.13 0.03,0.2 0,0.11 -0.02,0.21 -0.07,0.28 -0.05,0.07 -0.12,0.13 -0.2,0.16l0.4 0.4 -0.33 0zm0.85 0l0 -1.09 -0.51 0 0 -0.23 1.25 0 0 0.23 -0.5 0 0 1.09 -0.24 0zm0.9 0l0 -1.32 1.19 0 0 0.23 -0.96 0 0 0.86 0.96 0 0 0.23 -1.19 0zm0.4 -0.57l0 -0.2 0.74 0 0 0.2 -0.74 0z"/>
   <path class="fil3" d="M3.02 1.61l0.27 0 0.62 -1.21 0.3 0.59 -0.02 0 0.11 0.22 0.02 0 0.2 0.4 0.29 0 -0.78 -1.51c-0.01,-0.03 -0.03,-0.05 -0.05,-0.07l0 0c-0.02,-0.01 -0.04,-0.02 -0.06,-0.02l0 0c-0.03,0 -0.05,0.01 -0.07,0.02l0 0c-0.02,0.02 -0.04,0.04 -0.05,0.07l0 0 -0.78 1.51z"/>
   <path class="fil4" d="M4.46 1.61l0.35 0c-0.56,-0.81 -1.39,-1.19 -2.14,-1.29 0.83,0.19 1.52,0.87 1.72,1.29l0 0 0.07 0z"/>
   <path class="fil4" d="M2.75 0.39c0.45,0.11 0.99,0.56 1.17,1.22l0 0 0.37 0c-0.42,-0.82 -1.17,-1.14 -1.54,-1.22z"/>
   <g>
    <path class="fil5" d="M0.16 3.04l0.08 -0.29c-0.05,-0.09 -0.08,-0.18 -0.08,-0.28 0,-0.31 0.25,-0.56 0.57,-0.56 0.15,0 0.29,0.06 0.4,0.17 0.1,0.1 0.16,0.24 0.16,0.39 0,0.31 -0.25,0.56 -0.56,0.56 0,0 0,0 0,0l0 0c-0.1,0 -0.19,-0.03 -0.27,-0.07l-0.3 0.08zm0.31 -0.18l0.02 0.01c0.07,0.04 0.15,0.06 0.24,0.06l0 0c0.26,0 0.47,-0.2 0.47,-0.46 0,-0.12 -0.05,-0.24 -0.14,-0.33 -0.09,-0.09 -0.21,-0.13 -0.33,-0.13 -0.26,0 -0.47,0.2 -0.47,0.46 0,0.09 0.02,0.17 0.07,0.25l0.01 0.01 -0.05 0.17 0.18 -0.04z"/>
    <path class="fil5" d="M0.59 2.24c-0.02,-0.03 -0.03,-0.03 -0.04,-0.03 0,0 -0.01,0 -0.02,0 -0.01,0 -0.03,0.01 -0.04,0.02 -0.01,0.01 -0.05,0.05 -0.05,0.12 0,0.06 0.05,0.13 0.06,0.14 0,0.01 0.09,0.15 0.24,0.21 0.12,0.05 0.14,0.04 0.17,0.03 0.02,0 0.08,-0.03 0.09,-0.06 0.02,-0.03 0.02,-0.06 0.01,-0.07 0,0 -0.01,-0.01 -0.03,-0.01 -0.01,-0.01 -0.08,-0.04 -0.09,-0.05 -0.01,0 -0.02,-0.01 -0.03,0.01 -0.01,0.01 -0.04,0.04 -0.05,0.05 -0.01,0.01 -0.01,0.01 -0.03,0.01 -0.01,-0.01 -0.06,-0.03 -0.11,-0.07 -0.05,-0.04 -0.07,-0.09 -0.08,-0.1 -0.01,-0.01 0,-0.02 0,-0.03 0.01,0 0.02,-0.01 0.03,-0.02 0,-0.01 0.01,-0.02 0.01,-0.03 0,-0.01 0,-0.01 0,-0.02 0,-0.01 -0.03,-0.08 -0.04,-0.1z"/>
   </g>
   <path class="fil0" d="M1.8 2.89c-0.03,-0.07 -0.06,-0.14 -0.07,-0.2 -0.02,-0.06 -0.03,-0.13 -0.03,-0.19 0,-0.07 0.01,-0.13 0.03,-0.19 0.01,-0.07 0.04,-0.13 0.07,-0.21l0.08 0c-0.04,0.08 -0.06,0.15 -0.08,0.22 -0.02,0.06 -0.02,0.12 -0.02,0.18 0,0.06 0,0.12 0.02,0.18 0.01,0.07 0.04,0.14 0.08,0.21l-0.08 0zm0.31 -0.07l0 -0.42c0,-0.04 -0.01,-0.06 -0.03,-0.08 -0.01,-0.01 -0.03,-0.02 -0.06,-0.02l-0.06 0 0 -0.11 0.06 0c0.06,0 0.11,0.02 0.14,0.05 0.04,0.04 0.06,0.09 0.06,0.16l0 0.42 -0.11 0zm0.33 0l0 -0.42c0,-0.04 0,-0.06 -0.02,-0.08 -0.01,-0.01 -0.04,-0.02 -0.07,-0.02l-0.06 0 0 -0.11 0.06 0c0.07,0 0.12,0.02 0.15,0.05 0.04,0.04 0.05,0.09 0.05,0.16l0 0.42 -0.11 0zm0.22 0.07c0.04,-0.07 0.07,-0.14 0.08,-0.21 0.02,-0.06 0.03,-0.12 0.03,-0.18 0,-0.06 -0.01,-0.12 -0.03,-0.18 -0.01,-0.07 -0.04,-0.14 -0.07,-0.22l0.07 0c0.04,0.08 0.06,0.14 0.07,0.21 0.02,0.06 0.03,0.12 0.03,0.19 0,0.06 -0.01,0.13 -0.02,0.19 -0.02,0.06 -0.04,0.13 -0.08,0.2l-0.08 0zm1.03 -0.07l0 -0.17 -0.26 0c-0.07,0 -0.12,-0.02 -0.16,-0.05 -0.03,-0.03 -0.05,-0.08 -0.05,-0.15l0 -0.26 0.11 0 0 0.26c0,0.03 0.01,0.06 0.02,0.07 0.02,0.02 0.05,0.03 0.08,0.03l0.26 0 0 -0.36 0.11 0 0 0.36 0.1 0 0 0.1 -0.1 0 0 0.17 -0.11 0zm0.27 0l0.44 -0.52 -0.44 0 0 -0.11 0.53 0c0.03,0 0.04,0.01 0.06,0.02 0.01,0.01 0.01,0.02 0.01,0.03 0,0.01 0,0.02 0,0.03 -0.01,0 -0.01,0.01 -0.02,0.02l-0.43 0.53 -0.15 0zm0.99 0.01c-0.05,0 -0.09,-0.01 -0.13,-0.03 -0.04,-0.02 -0.08,-0.04 -0.11,-0.07 -0.03,-0.03 -0.05,-0.06 -0.07,-0.1 -0.02,-0.04 -0.02,-0.09 -0.02,-0.13 0,-0.05 0,-0.09 0.02,-0.13 0.02,-0.04 0.04,-0.07 0.07,-0.1 0.03,-0.03 0.07,-0.05 0.11,-0.06 0.04,-0.02 0.08,-0.03 0.13,-0.03 0.04,0 0.09,0.01 0.13,0.03 0.04,0.01 0.07,0.03 0.1,0.06 0.03,0.03 0.05,0.06 0.07,0.1 0.02,0.04 0.03,0.08 0.03,0.13 0,0.04 -0.01,0.09 -0.03,0.13 -0.02,0.04 -0.04,0.07 -0.07,0.1 -0.03,0.03 -0.06,0.05 -0.1,0.07 -0.04,0.02 -0.09,0.03 -0.13,0.03zm0.21 -0.33c0,-0.03 0,-0.05 -0.01,-0.08 -0.01,-0.03 -0.02,-0.05 -0.04,-0.07 -0.02,-0.02 -0.04,-0.03 -0.07,-0.04 -0.03,-0.01 -0.06,-0.02 -0.09,-0.02 -0.04,0 -0.07,0.01 -0.1,0.02 -0.02,0.01 -0.05,0.02 -0.07,0.04 -0.01,0.02 -0.03,0.04 -0.04,0.07 -0.01,0.03 -0.01,0.05 -0.01,0.08 0,0.03 0,0.06 0.01,0.09 0.01,0.02 0.03,0.05 0.04,0.06 0.02,0.02 0.05,0.04 0.07,0.05 0.03,0.01 0.06,0.02 0.1,0.02 0.03,0 0.06,-0.01 0.09,-0.02 0.03,-0.01 0.05,-0.03 0.07,-0.05 0.02,-0.01 0.03,-0.04 0.04,-0.06 0.01,-0.03 0.01,-0.06 0.01,-0.09zm0.2 0.32l0.43 -0.52 -0.44 0 0 -0.11 0.54 0c0.02,0 0.04,0.01 0.05,0.02 0.01,0.01 0.02,0.02 0.02,0.03 0,0.01 0,0.02 -0.01,0.03 0,0 0,0.01 -0.01,0.02l-0.44 0.53 -0.14 0zm0.64 -0.28l0 -0.08 0.21 0 0 0.08 -0.21 0zm0.75 0.28l0 -0.17 -0.26 0c-0.07,0 -0.12,-0.02 -0.16,-0.05 -0.03,-0.03 -0.05,-0.08 -0.05,-0.15l0 -0.26 0.11 0 0 0.26c0,0.03 0.01,0.06 0.02,0.07 0.02,0.02 0.04,0.03 0.08,0.03l0.26 0 0 -0.36 0.11 0 0 0.36 0.09 0 0 0.1 -0.09 0 0 0.17 -0.11 0zm0.27 0l0.43 -0.52 -0.44 0 0 -0.11 0.54 0c0.02,0 0.04,0.01 0.05,0.02 0.01,0.01 0.02,0.02 0.02,0.03 0,0.01 0,0.02 0,0.03 -0.01,0 -0.01,0.01 -0.02,0.02l-0.44 0.53 -0.14 0zm0.67 0l0 -0.19c0,-0.06 0.02,-0.1 0.05,-0.13 0.04,-0.03 0.09,-0.05 0.15,-0.05l0.23 0c0.02,0 0.04,0 0.06,-0.02 0.01,-0.01 0.02,-0.03 0.02,-0.05 0,-0.03 -0.01,-0.05 -0.02,-0.06 -0.02,-0.01 -0.04,-0.02 -0.06,-0.02l-0.42 0 0 -0.11 0.42 0c0.03,0 0.06,0 0.08,0.01 0.03,0.01 0.05,0.02 0.06,0.04 0.02,0.02 0.03,0.03 0.04,0.06 0.01,0.02 0.02,0.04 0.02,0.07 0,0.02 -0.01,0.05 -0.02,0.07 -0.01,0.02 -0.02,0.04 -0.04,0.05 -0.01,0.02 -0.03,0.03 -0.06,0.04 -0.02,0.01 -0.05,0.02 -0.08,0.02l-0.23 0c-0.06,0 -0.09,0.02 -0.09,0.08l0 0.08 0.5 0 0 0.11 -0.61 0zm1.04 0.01c-0.05,0 -0.09,-0.01 -0.13,-0.03 -0.04,-0.02 -0.08,-0.04 -0.11,-0.07 -0.03,-0.03 -0.05,-0.06 -0.07,-0.1 -0.01,-0.04 -0.02,-0.09 -0.02,-0.13 0,-0.05 0.01,-0.09 0.02,-0.13 0.02,-0.04 0.04,-0.07 0.07,-0.1 0.03,-0.03 0.07,-0.05 0.11,-0.06 0.04,-0.02 0.08,-0.03 0.13,-0.03 0.04,0 0.09,0.01 0.13,0.03 0.04,0.01 0.07,0.03 0.1,0.06 0.03,0.03 0.06,0.06 0.07,0.1 0.02,0.04 0.03,0.08 0.03,0.13 0,0.04 -0.01,0.09 -0.03,0.13 -0.01,0.04 -0.04,0.07 -0.07,0.1 -0.03,0.03 -0.06,0.05 -0.1,0.07 -0.04,0.02 -0.09,0.03 -0.13,0.03zm0.22 -0.33c0,-0.03 -0.01,-0.05 -0.02,-0.08 -0.01,-0.03 -0.02,-0.05 -0.04,-0.07 -0.02,-0.02 -0.04,-0.03 -0.07,-0.04 -0.03,-0.01 -0.06,-0.02 -0.09,-0.02 -0.04,0 -0.07,0.01 -0.1,0.02 -0.02,0.01 -0.05,0.02 -0.06,0.04 -0.02,0.02 -0.04,0.04 -0.05,0.07 -0.01,0.03 -0.01,0.05 -0.01,0.08 0,0.03 0,0.06 0.01,0.09 0.01,0.02 0.03,0.05 0.05,0.06 0.01,0.02 0.04,0.04 0.06,0.05 0.03,0.01 0.06,0.02 0.1,0.02 0.03,0 0.06,-0.01 0.09,-0.02 0.03,-0.01 0.05,-0.03 0.07,-0.05 0.02,-0.01 0.03,-0.04 0.04,-0.06 0.01,-0.03 0.02,-0.06 0.02,-0.09z"/>
  </g>
 </g>
</svg>
